<?xml version="1.0" standalone="no"?><!DOCTYPE svg PUBLIC "-//W3C//DTD SVG 1.1//EN" "http://www.w3.org/Graphics/SVG/1.1/DTD/svg11.dtd"><svg t="1581057090495" class="icon" viewBox="0 0 1024 1024" version="1.1" xmlns="http://www.w3.org/2000/svg" p-id="1971" xmlns:xlink="http://www.w3.org/1999/xlink" width="200" height="200"><defs><style type="text/css"></style></defs><path d="M321.282331 447.565479l-16.058744 152.771429-31.513738 0 17.48114-166.30363 71.212902 0c-1.954515 10.147104-7.557116 39.698141-11.307533 60.175521l3.917216 0-13.603833 83.688028-30.091342 0 10.965749-68.726268-4.100388 0 10.750855-61.606103L321.282331 447.564455zM449.611068 502.051417c-0.985444 9.431813-9.273201 17.092283-18.34788 17.092283l-5.879917 0 4.919033 24.38641 3.695159-8.009418 14.597463 0-13.992689 29.734208 7.198959 34.898835-30.981618 0-16.765849-81.010035-4.449335 0-7.072069 67.295686 13.349029 0-1.437745 13.715373-46.294372 0 17.441231-165.946496 91.157139 0L449.611068 502.051417zM412.764881 505.436514c2.852978 0 5.02955-2.145873 5.331425-4.989641l1.755993-16.734126-26.524097 0-2.28095 21.724791L412.764881 505.437537zM394.766972 469.997374l26.524097 0 2.319835-22.081924-26.524097 0L394.766972 469.997374z" p-id="1972" fill="#f72004"></path><path d="M541.181623 438.84077l-14.429641 137.284713c-0.977257 9.249665-10.520611 17.092283-21.557992 17.092283l-53.05638 0 16.225543-154.376996L541.181623 438.84077zM500.673024 522.703783l-9.614985 0-5.967922 56.798611 3.735068 0c3.210112 0 6.126534-2.312672 6.420223-5.164626L500.673024 522.703783zM492.480434 509.171582l9.614985 0 5.975085-56.806797-9.614985 0L492.480434 509.171582zM572.981886 488.51103l-2.963495 68.908416-29.551036 0 2.789533-68.908416L572.981886 488.51103zM544.399921 455.574896l44.688805 0 2.606361-24.75173 39.881312 0-2.606361 24.75173 6.054903 0-1.39886 13.357216-6.054903 0-11.943007 113.597221c-0.969071 9.256828-9.431813 16.909112-18.689664 16.909112l-43.9817 0 1.422396-13.524015 15.852036 0c2.844791 0 5.379521-2.145873 5.681396-4.989641l11.776208-111.992677-44.688805 0L544.399921 455.574896z" p-id="1973" fill="#f72004"></path><path d="M658.013515 490.831888l-13.380752 108.60758-15.311731 0 13.198603-108.60758L658.013515 490.831888zM647.27801 437.060217l69.798692 0-1.382487 13.175067-19.587104 0-1.684362 16.027022 20.47738 0-1.406023 13.349029-20.47738 0L680.420851 599.438445l-30.624485 0 12.594853-119.827109-20.47738 0 1.406023-13.349029 20.47738 0 1.684362-16.027022-19.587104 0L647.27801 437.060217zM710.536752 490.831888l-9.638521 108.60758-15.311731 0 9.455349-108.60758L710.536752 490.831888zM748.098229 446.850188l-16.193821 101.495602-22.964014 0 16.543791-101.495602L748.098229 446.850188zM713.683419 584.492034l41.311895 0c4.450359 0 8.518001-3.210112 9.91686-8.017604l2.971681-9.614985-28.66997 0 14.279215-135.854131 31.513738 0-12.951987 123.212206 7.151887-22.25691 25.642007 0-16.687054 51.991118c-2.924609 9.265014-11.060917 15.486716-19.785625 15.486716l-56.266491 0L713.683419 584.492034zM809.164027 446.850188l-3.154853 74.073042-22.614044 0 3.163039-74.073042L809.164027 446.850188z" p-id="1974" fill="#f72004"></path><path d="M860.876806 537.475208l-15.940041 60.191894-37.743626 0 15.940041-60.191894L860.876806 537.475208zM816.021202 513.620917l62.488193 0 2.00261-19.054985 43.083238 0-2.00261 19.054985 63.028499 0-1.422396 13.532201-63.028499 0-5.89629 56.091506c-0.969071 9.249665-9.249665 16.909112-18.323321 16.909112l-41.661865 0 1.422396-13.532201 10.32209 0c2.669806 0 5.045923-2.312672 5.331425-4.982478l5.721305-54.485939-62.488193 0L816.021202 513.620917zM836.228429 451.839829 878.000811 467.684702l-54.168714 19.046798-2.097778 19.944238 82.45699-29.018917 76.537164 29.018917 2.097778-19.944238L932.661735 467.684702l45.277206-15.844873 2.097778-19.952424-73.564459 25.825179-68.153216-25.825179L836.228429 451.839829zM934.759513 537.475208l3.289929 60.191894 37.736463 0-3.456728-60.191894L934.759513 537.475208z" p-id="1975" fill="#f72004"></path><path d="M211.109092 550.403658c-3.969405-2.1295-8.899694-0.627287-11.009751 3.337002-12.396331 23.202445-36.420491 37.616736-62.698994 37.616736-39.161928 0-71.025637-31.863708-71.025637-71.02973 0-39.157835 31.863708-71.022567 71.025637-71.022567 16.292058 0 31.879058 5.578042 44.461631 15.705704l-4.814656 0.322341c-4.485151 0.301875-7.874341 4.179183-7.572466 8.66945 0.286526 4.298909 3.861958 7.588839 8.108678 7.588839 0.183172 0 0.369414-0.008186 0.552585-0.016373l25.566282-1.716084c4.485151-0.301875 7.874341-4.179183 7.572466-8.66945l-1.716084-25.570375c-0.301875-4.482081-4.214998-7.723915-8.661264-7.572466-4.485151 0.301875-7.874341 4.179183-7.572466 8.66945l0.474814 7.095605c-15.760962-13.377682-35.611056-20.779256-56.399521-20.779256-48.137347 0-87.299275 39.158858-87.299275 87.296205s39.161928 87.303368 87.299275 87.303368c32.296567 0 61.820997-17.711384 77.05291-46.214555C216.568431 557.452191 215.074404 552.516786 211.109092 550.403658z" p-id="1976" fill="#f72004"></path><path d="M136.555096 488.972541l0 32.53909-20.830421-7.413853c-4.214998-1.509377-8.887414 0.698918-10.393721 4.942569-1.505283 4.235464 0.707105 8.883321 4.942569 10.393721l31.692816 11.275811c0.886183 0.310062 1.808182 0.468674 2.725064 0.468674 1.656733 0 3.301186-0.508583 4.691859-1.485841 2.161223-1.52575 3.444449-4.00522 3.444449-6.650467l0-44.068681c0-4.497431-3.64297-8.136308-8.136308-8.136308C140.198066 480.83521 136.555096 484.47511 136.555096 488.972541z" p-id="1977" fill="#f72004"></path></svg>