<?xml version="1.0" standalone="no"?><!DOCTYPE svg PUBLIC "-//W3C//DTD SVG 1.1//EN" "http://www.w3.org/Graphics/SVG/1.1/DTD/svg11.dtd"><svg t="1582634252291" class="icon" viewBox="0 0 1024 1024" version="1.1" xmlns="http://www.w3.org/2000/svg" p-id="2127" xmlns:xlink="http://www.w3.org/1999/xlink" width="200" height="200"><defs><style type="text/css"></style></defs><path d="M765.952 595.968L516.096 927.744s-2.048 2.048-4.096 2.048-4.096 0-4.096-2.048L258.048 595.968c-32.768-55.296-47.104-104.448-47.104-163.84C212.992 245.76 346.112 94.208 512 94.208S811.008 245.76 811.008 432.128c0 59.392-12.288 108.544-45.056 163.84zM512 32.768c-200.704 0-360.448 176.128-360.448 395.264 0 75.776 20.48 135.168 57.344 194.56l266.24 348.16c8.192 14.336 22.528 22.528 38.912 22.528 16.384 0 30.72-8.192 38.912-22.528l266.24-348.16c34.816-59.392 57.344-118.784 57.344-194.56-4.096-219.136-163.84-395.264-364.544-395.264z m0 464.896c-49.152 0-90.112-40.96-90.112-92.16s40.96-92.16 90.112-92.16c49.152 0 90.112 40.96 90.112 92.16s-40.96 92.16-90.112 92.16z m0-247.808c-81.92 0-149.504 69.632-149.504 155.648s67.584 155.648 149.504 155.648 149.504-69.632 149.504-155.648-67.584-155.648-149.504-155.648z" fill="#B0ADAD" p-id="2128"></path></svg>